<svg xmlns="http://www.w3.org/2000/svg" width="1200" height="320" viewBox="0 0 1200 320" role="img" aria-label="cs2-walkbot-ext — CS2 外部走路机器人 · WindMouse + Fitts 人性化瞄准 · ImGui/DX11 叠加层" font-family="Georgia,'Iowan Old Style','Times New Roman',Times,serif"><rect width="1200" height="320" fill="#F4EFE6"/><text x="34" y="44" font-size="12" font-family="ui-monospace,'Cascadia Mono',Consolas,'SF Mono',monospace" font-weight="400" fill="#4a5a8a" text-anchor="start" letter-spacing="2.0" opacity="0.9">INK LAB / 01 · post · science</text><path d="M33.94 56.02 L316.98 55.15 L316.99 55.18 L600.05 54.45 L600.04 54.42 L882.93 56.69 L882.95 56.74 L1166.01 55.93" fill="none" stroke="#4a5a8a" stroke-width="1.2" stroke-linecap="round" stroke-linejoin="round" opacity="1.0"/><text x="60" y="96" font-size="15" font-family="ui-monospace,'Cascadia Mono',Consolas,'SF Mono',monospace" font-weight="400" fill="#e8dcc8" text-anchor="start">C</text><text x="430" y="96" font-size="15" font-family="ui-monospace,'Cascadia Mono',Consolas,'SF Mono',monospace" font-weight="700" fill="#2f6b4f" text-anchor="start">OK</text><path d="M452.03 90.97 L453.57 92.8 L453.53 92.7 L455.03 93.86 L455.01 93.88 L456.21 95.47 L456.3 95.4 L457.96 97.07" fill="none" stroke="#2f6b4f" stroke-width="2.0" stroke-linecap="round" stroke-linejoin="round" opacity="1.0"/><path d="M457.97 96.97 L460.51 94.23 L460.57 94.29 L463.89 90.98 L463.84 90.95 L466.68 87.53 L466.6 87.53 L469.98 85.05" fill="none" stroke="#2f6b4f" stroke-width="2.0" stroke-linecap="round" stroke-linejoin="round" opacity="1.0"/><text x="60" y="122" font-size="15" font-family="ui-monospace,'Cascadia Mono',Consolas,'SF Mono',monospace" font-weight="400" fill="#e8dcc8" text-anchor="start">none</text><text x="430" y="122" font-size="15" font-family="ui-monospace,'Cascadia Mono',Consolas,'SF Mono',monospace" font-weight="700" fill="#2f6b4f" text-anchor="start">OK</text><path d="M451.96 116.95 L453.31 118.28 L453.33 118.29 L455.08 119.89 L455.1 119.88 L456.49 121.55 L456.45 121.57 L457.96 123.0" fill="none" stroke="#2f6b4f" stroke-width="2.0" stroke-linecap="round" stroke-linejoin="round" opacity="1.0"/><path d="M458.01 123.0 L461.44 119.92 L461.5 119.96 L464.1 116.96 L464.16 116.99 L466.73 113.76 L466.78 113.75 L470.02 110.99" fill="none" stroke="#2f6b4f" stroke-width="2.0" stroke-linecap="round" stroke-linejoin="round" opacity="1.0"/><text x="60" y="148" font-size="15" font-family="ui-monospace,'Cascadia Mono',Consolas,'SF Mono',monospace" font-weight="400" fill="#e8dcc8" text-anchor="start">cs2</text><text x="430" y="148" font-size="15" font-family="ui-monospace,'Cascadia Mono',Consolas,'SF Mono',monospace" font-weight="700" fill="#2f6b4f" text-anchor="start">OK</text><path d="M452.04 142.95 L453.6 144.4 L453.56 144.41 L454.91 145.88 L454.89 145.93 L456.72 147.58 L456.65 147.6 L457.96 149.03" fill="none" stroke="#2f6b4f" stroke-width="2.0" stroke-linecap="round" stroke-linejoin="round" opacity="1.0"/><path d="M458.02 149.03 L461.3 145.43 L461.3 145.44 L463.8 142.74 L463.8 142.84 L466.63 140.24 L466.51 140.13 L470.02 137.0" fill="none" stroke="#2f6b4f" stroke-width="2.0" stroke-linecap="round" stroke-linejoin="round" opacity="1.0"/><text x="60" y="174" font-size="15" font-family="ui-monospace,'Cascadia Mono',Consolas,'SF Mono',monospace" font-weight="400" fill="#e8dcc8" text-anchor="start">directx11</text><text x="430" y="174" font-size="15" font-family="ui-monospace,'Cascadia Mono',Consolas,'SF Mono',monospace" font-weight="700" fill="#2f6b4f" text-anchor="start">OK</text><path d="M452.04 168.95 L453.55 170.68 L453.49 170.61 L454.96 172.12 L454.85 172.1 L456.23 173.4 L456.2 173.46 L458.06 174.99" fill="none" stroke="#2f6b4f" stroke-width="2.0" stroke-linecap="round" stroke-linejoin="round" opacity="1.0"/><path d="M457.98 174.94 L461.28 171.81 L461.24 171.79 L463.94 168.73 L463.93 168.74 L466.81 166.01 L466.84 166.05 L469.94 163.04" fill="none" stroke="#2f6b4f" stroke-width="2.0" stroke-linecap="round" stroke-linejoin="round" opacity="1.0"/><text x="60" y="200" font-size="15" font-family="ui-monospace,'Cascadia Mono',Consolas,'SF Mono',monospace" font-weight="400" fill="#e8dcc8" text-anchor="start">imgui</text><text x="430" y="200" font-size="15" font-family="ui-monospace,'Cascadia Mono',Consolas,'SF Mono',monospace" font-weight="700" fill="#2f6b4f" text-anchor="start">OK</text><path d="M452.01 195.0 L453.74 196.47 L453.64 196.55 L455.03 197.96 L454.97 197.98 L456.7 199.72 L456.67 199.78 L457.95 200.99" fill="none" stroke="#2f6b4f" stroke-width="2.0" stroke-linecap="round" stroke-linejoin="round" opacity="1.0"/><path d="M458.05 201.02 L461.5 197.42 L461.42 197.49 L463.95 194.91 L463.97 195.0 L466.83 191.69 L466.82 191.68 L469.96 189.03" fill="none" stroke="#2f6b4f" stroke-width="2.0" stroke-linecap="round" stroke-linejoin="round" opacity="1.0"/><text x="60" y="226" font-size="15" font-family="ui-monospace,'Cascadia Mono',Consolas,'SF Mono',monospace" font-weight="400" fill="#e8dcc8" text-anchor="start">STARS</text><text x="430" y="226" font-size="15" font-family="ui-monospace,'Cascadia Mono',Consolas,'SF Mono',monospace" font-weight="700" fill="#2f6b4f" text-anchor="start">6</text><path d="M452.01 221.04 L453.67 222.4 L453.66 222.35 L454.93 224.17 L454.97 224.17 L456.63 225.69 L456.54 225.72 L457.96 227.02" fill="none" stroke="#2f6b4f" stroke-width="2.0" stroke-linecap="round" stroke-linejoin="round" opacity="1.0"/><path d="M458.01 227.05 L460.79 223.73 L460.75 223.69 L463.75 221.08 L463.73 221.01 L466.64 217.68 L466.56 217.78 L469.98 215.02" fill="none" stroke="#2f6b4f" stroke-width="2.0" stroke-linecap="round" stroke-linejoin="round" opacity="1.0"/><text x="520" y="140" font-size="44" font-family="Georgia,'Iowan Old Style','Times New Roman',Times,serif" font-weight="400" fill="#e8dcc8" text-anchor="start">cs2-walkbot-ext</text><path d="M520.03 152.0 L605.73 148.41 L605.76 148.46 L691.62 152.43 L691.61 152.37 L777.35 158.02 L777.37 158.06 L863.17 151.95" fill="none" stroke="#3d4a7a" stroke-width="2.4" stroke-linecap="round" stroke-linejoin="round" opacity="1.0"/><text x="520" y="180" font-size="17" font-family="Georgia,'Iowan Old Style','Times New Roman',Times,serif" font-weight="400" fill="#e8dcc8" text-anchor="start" font-style="italic" opacity="0.92">CS2 外部走路机器人 · WindMouse + Fitts 人性化瞄准 ·</text><text x="520" y="206" font-size="17" font-family="Georgia,'Iowan Old Style','Times New Roman',Times,serif" font-weight="400" fill="#e8dcc8" text-anchor="start" font-style="italic" opacity="0.92">ImGui/DX11 叠加层</text><text x="1166" y="110" font-size="30" font-family="Georgia,'Iowan Old Style','Times New Roman',Times,serif" font-weight="400" fill="#3d4a7a" text-anchor="end">★6</text><text x="1166" y="132" font-size="11" font-family="ui-monospace,'Cascadia Mono',Consolas,'SF Mono',monospace" font-weight="400" fill="#4a5a8a" text-anchor="end" letter-spacing="2.0" opacity="0.9">C · NONE</text><text x="1166" y="150" font-size="11" font-family="ui-monospace,'Cascadia Mono',Consolas,'SF Mono',monospace" font-weight="400" fill="#4a5a8a" text-anchor="end" letter-spacing="2.0" opacity="0.6">2026-07-10</text><path d="M12.03 12.0 L1187.99 11.96 L1188.03 307.98 L12.04 307.97 Z" fill="none" stroke="#e8dcc8" stroke-width="1.6" stroke-linecap="round" stroke-linejoin="round" opacity="1.0"/><path d="M14.05 11.01 L1189.98 10.94 L1190.06 306.97 L14.07 306.95 Z" transform="translate(1.6 1.2)" fill="none" stroke="#e8dcc8" stroke-width="1.1" stroke-linecap="round" stroke-linejoin="round" opacity="0.22"/></svg>