<svg xmlns="http://www.w3.org/2000/svg" width="1200" height="320" viewBox="0 0 1200 320" role="img" aria-label="cs2-walkbot-ext — CS2 外部走路机器人 · WindMouse + Fitts 人性化瞄准 · ImGui/DX11 叠加层" font-family="Georgia,'Iowan Old Style','Times New Roman',Times,serif"><rect width="1200" height="320" fill="#0B0A0C"/><text x="34" y="44" font-size="12" font-family="ui-monospace,'Cascadia Mono',Consolas,'SF Mono',monospace" font-weight="400" fill="#8A97B8" text-anchor="start" letter-spacing="2.0" opacity="0.9">INK LAB / 01 · post · science</text><path d="M34.0 55.99 L317.07 59.77 L317.02 59.76 L599.94 56.91 L599.96 56.96 L883.04 54.28 L882.98 54.41 L1165.96 56.01" fill="none" stroke="#8A97B8" stroke-width="1.2" stroke-linecap="round" stroke-linejoin="round" opacity="1.0"/><text x="60" y="96" font-size="15" font-family="ui-monospace,'Cascadia Mono',Consolas,'SF Mono',monospace" font-weight="400" fill="#e8dcc8" text-anchor="start">C</text><text x="430" y="96" font-size="15" font-family="ui-monospace,'Cascadia Mono',Consolas,'SF Mono',monospace" font-weight="700" fill="#57a98a" text-anchor="start">OK</text><path d="M452.07 90.97 L453.54 92.41 L453.52 92.4 L454.92 94.05 L454.89 94.15 L456.58 95.69 L456.57 95.61 L457.94 97.02" fill="none" stroke="#57a98a" stroke-width="2.0" stroke-linecap="round" stroke-linejoin="round" opacity="1.0"/><path d="M458.01 97.03 L461.04 94.34 L461.04 94.32 L463.73 91.07 L463.8 91.0 L466.73 88.27 L466.7 88.27 L470.06 85.02" fill="none" stroke="#57a98a" stroke-width="2.0" stroke-linecap="round" stroke-linejoin="round" opacity="1.0"/><text x="60" y="122" font-size="15" font-family="ui-monospace,'Cascadia Mono',Consolas,'SF Mono',monospace" font-weight="400" fill="#e8dcc8" text-anchor="start">none</text><text x="430" y="122" font-size="15" font-family="ui-monospace,'Cascadia Mono',Consolas,'SF Mono',monospace" font-weight="700" fill="#57a98a" text-anchor="start">OK</text><path d="M452.03 117.04 L453.31 118.3 L453.37 118.34 L455.11 119.96 L455.13 119.95 L456.25 121.38 L456.29 121.38 L457.99 122.95" fill="none" stroke="#57a98a" stroke-width="2.0" stroke-linecap="round" stroke-linejoin="round" opacity="1.0"/><path d="M458.03 123.03 L460.74 119.84 L460.67 119.78 L463.8 117.18 L463.89 117.28 L467.42 114.0 L467.42 114.02 L469.97 110.95" fill="none" stroke="#57a98a" stroke-width="2.0" stroke-linecap="round" stroke-linejoin="round" opacity="1.0"/><text x="60" y="148" font-size="15" font-family="ui-monospace,'Cascadia Mono',Consolas,'SF Mono',monospace" font-weight="400" fill="#e8dcc8" text-anchor="start">cs2</text><text x="430" y="148" font-size="15" font-family="ui-monospace,'Cascadia Mono',Consolas,'SF Mono',monospace" font-weight="700" fill="#57a98a" text-anchor="start">OK</text><path d="M452.03 143.06 L453.7 144.23 L453.65 144.33 L454.97 145.89 L454.86 145.85 L456.57 147.4 L456.57 147.39 L457.99 148.94" fill="none" stroke="#57a98a" stroke-width="2.0" stroke-linecap="round" stroke-linejoin="round" opacity="1.0"/><path d="M458.02 148.99 L460.87 145.42 L460.88 145.45 L463.78 142.79 L463.79 142.86 L466.72 139.58 L466.72 139.46 L469.97 137.04" fill="none" stroke="#57a98a" stroke-width="2.0" stroke-linecap="round" stroke-linejoin="round" opacity="1.0"/><text x="60" y="174" font-size="15" font-family="ui-monospace,'Cascadia Mono',Consolas,'SF Mono',monospace" font-weight="400" fill="#e8dcc8" text-anchor="start">directx11</text><text x="430" y="174" font-size="15" font-family="ui-monospace,'Cascadia Mono',Consolas,'SF Mono',monospace" font-weight="700" fill="#57a98a" text-anchor="start">OK</text><path d="M451.99 168.96 L453.8 170.24 L453.9 170.3 L455.1 171.95 L455.1 171.91 L456.74 173.76 L456.69 173.72 L458.07 175.0" fill="none" stroke="#57a98a" stroke-width="2.0" stroke-linecap="round" stroke-linejoin="round" opacity="1.0"/><path d="M457.98 174.95 L460.84 171.44 L460.9 171.46 L463.89 169.06 L463.82 169.06 L467.15 166.27 L467.2 166.23 L470.03 163.06" fill="none" stroke="#57a98a" stroke-width="2.0" stroke-linecap="round" stroke-linejoin="round" opacity="1.0"/><text x="60" y="200" font-size="15" font-family="ui-monospace,'Cascadia Mono',Consolas,'SF Mono',monospace" font-weight="400" fill="#e8dcc8" text-anchor="start">imgui</text><text x="430" y="200" font-size="15" font-family="ui-monospace,'Cascadia Mono',Consolas,'SF Mono',monospace" font-weight="700" fill="#57a98a" text-anchor="start">OK</text><path d="M452.06 195.0 L453.45 196.31 L453.37 196.34 L454.98 198.0 L455.01 198.01 L456.25 199.29 L456.24 199.38 L458.02 200.98" fill="none" stroke="#57a98a" stroke-width="2.0" stroke-linecap="round" stroke-linejoin="round" opacity="1.0"/><path d="M458.05 200.97 L460.4 197.89 L460.31 198.01 L463.68 195.1 L463.77 195.09 L466.77 192.13 L466.83 192.21 L470.0 189.0" fill="none" stroke="#57a98a" stroke-width="2.0" stroke-linecap="round" stroke-linejoin="round" opacity="1.0"/><text x="60" y="226" font-size="15" font-family="ui-monospace,'Cascadia Mono',Consolas,'SF Mono',monospace" font-weight="400" fill="#e8dcc8" text-anchor="start">STARS</text><text x="430" y="226" font-size="15" font-family="ui-monospace,'Cascadia Mono',Consolas,'SF Mono',monospace" font-weight="700" fill="#57a98a" text-anchor="start">5</text><path d="M452.06 220.96 L453.41 222.63 L453.49 222.66 L455.03 223.98 L454.98 223.89 L456.46 225.43 L456.39 225.33 L457.94 227.03" fill="none" stroke="#57a98a" stroke-width="2.0" stroke-linecap="round" stroke-linejoin="round" opacity="1.0"/><path d="M458.05 226.96 L461.08 224.65 L461.1 224.67 L463.91 221.22 L463.95 221.32 L466.62 217.58 L466.56 217.52 L470.05 215.03" fill="none" stroke="#57a98a" stroke-width="2.0" stroke-linecap="round" stroke-linejoin="round" opacity="1.0"/><text x="520" y="140" font-size="44" font-family="Georgia,'Iowan Old Style','Times New Roman',Times,serif" font-weight="400" fill="#e8dcc8" text-anchor="start">cs2-walkbot-ext</text><path d="M520.03 152.0 L596.51 150.62 L596.6 150.62 L673.17 148.96 L673.19 148.93 L749.74 157.31 L749.7 157.26 L826.3 151.93" fill="none" stroke="#8e9cd0" stroke-width="2.4" stroke-linecap="round" stroke-linejoin="round" opacity="1.0"/><text x="520" y="180" font-size="17" font-family="Georgia,'Iowan Old Style','Times New Roman',Times,serif" font-weight="400" fill="#e8dcc8" text-anchor="start" font-style="italic" opacity="0.92">CS2 外部走路机器人 · WindMouse + Fitts 人性化瞄准 ·</text><text x="520" y="206" font-size="17" font-family="Georgia,'Iowan Old Style','Times New Roman',Times,serif" font-weight="400" fill="#e8dcc8" text-anchor="start" font-style="italic" opacity="0.92">ImGui/DX11 叠加层</text><text x="1166" y="110" font-size="30" font-family="Georgia,'Iowan Old Style','Times New Roman',Times,serif" font-weight="400" fill="#8e9cd0" text-anchor="end">★5</text><text x="1166" y="132" font-size="11" font-family="ui-monospace,'Cascadia Mono',Consolas,'SF Mono',monospace" font-weight="400" fill="#8A97B8" text-anchor="end" letter-spacing="2.0" opacity="0.9">C · NONE</text><text x="1166" y="150" font-size="11" font-family="ui-monospace,'Cascadia Mono',Consolas,'SF Mono',monospace" font-weight="400" fill="#8A97B8" text-anchor="end" letter-spacing="2.0" opacity="0.6">2026-09-30</text><path d="M12.03 12.0 L1187.96 11.96 L1187.99 308.03 L11.98 308.03 Z" fill="none" stroke="#e8dcc8" stroke-width="1.6" stroke-linecap="round" stroke-linejoin="round" opacity="1.0"/><path d="M14.04 11.0 L1189.94 10.94 L1189.98 307.06 L13.97 307.04 Z" transform="translate(1.6 1.2)" fill="none" stroke="#e8dcc8" stroke-width="1.1" stroke-linecap="round" stroke-linejoin="round" opacity="0.22"/></svg>